<?xml version="1.0" encoding="UTF-8"?>
      <mxfile host="codeviz.app" modified="2025-06-26T23:54:37.925Z" agent="CodeViz Exporter" version="14.6.5" type="device">
        <diagram id="codeviz-diagram" name="System Diagram">
          <mxGraphModel dx="1000" dy="1000" grid="1" gridSize="10" guides="1" tooltips="1" connect="1" arrows="1" fold="1" page="1" pageScale="1" pageWidth="1169" pageHeight="827" math="0" shadow="0">
            <root>
              <mxCell id="0"/>
              <mxCell id="1" parent="0"/>
              <mxCell id="524" value="" style="html=1;whiteSpace=wrap;container=1;fillColor=#dae8fc;strokeColor=#6c8ebf;dashed=1;fillOpacity=20;strokeWidth=2;containerType=none;recursiveResize=0;movable=1;resizable=1;autosize=0;dropTarget=0" vertex="1" parent="1">
                <mxGeometry x="22" y="1317" width="288.1578312295738" height="244.07891561478687" as="geometry"/>
              </mxCell>
              <mxCell id="524_label" value="External Systems" style="edgeLabel;html=1;align=center;verticalAlign=middle;resizable=0;labelBackgroundColor=white;spacing=5" vertex="1" parent="1">
                <mxGeometry x="30" y="1325" width="212.1578312295738" height="24" as="geometry"/>
              </mxCell>
<mxCell id="525" value="" style="html=1;whiteSpace=wrap;container=1;fillColor=#dae8fc;strokeColor=#6c8ebf;dashed=1;fillOpacity=20;strokeWidth=2;containerType=none;recursiveResize=0;movable=1;resizable=1;autosize=0;dropTarget=0" vertex="1" parent="1">
                <mxGeometry x="50.02630520492892" y="252" width="419.2367468443607" height="954.0789156147869" as="geometry"/>
              </mxCell>
              <mxCell id="525_label" value="Django E-commerce Site&lt;br&gt;Python / Django" style="edgeLabel;html=1;align=center;verticalAlign=middle;resizable=0;labelBackgroundColor=white;spacing=5" vertex="1" parent="1">
                <mxGeometry x="58.02630520492892" y="260" width="343.2367468443607" height="24" as="geometry"/>
              </mxCell>
<mxCell id="533" value="" style="html=1;whiteSpace=wrap;container=1;fillColor=#dae8fc;strokeColor=#6c8ebf;dashed=1;fillOpacity=20;strokeWidth=2;containerType=none;recursiveResize=0;movable=1;resizable=1;autosize=0;dropTarget=0" vertex="1" parent="1">
                <mxGeometry x="449.2630520492896" y="252" width="542.1577507870338" height="1314.0789156147869" as="geometry"/>
              </mxCell>
              <mxCell id="533_label" value="E-commerce Web Application&lt;br&gt;Django" style="edgeLabel;html=1;align=center;verticalAlign=middle;resizable=0;labelBackgroundColor=white;spacing=5" vertex="1" parent="1">
                <mxGeometry x="457.2630520492896" y="260" width="466.1577507870338" height="24" as="geometry"/>
              </mxCell>
              <mxCell id="526" value="User&lt;br&gt;External Actor" style="rounded=1;whiteSpace=wrap;html=1;fillColor=#f5f5f5" vertex="1" parent="1">
                    <mxGeometry x="80.02630520492892" y="12" width="168.1578312295738" height="84.0789156147869" as="geometry"/>
                  </mxCell>
<mxCell id="534" value="User&lt;br&gt;External Actor" style="rounded=1;whiteSpace=wrap;html=1;fillColor=#f5f5f5" vertex="1" parent="1">
                    <mxGeometry x="588.355120266541" y="12" width="168.1578312295738" height="84.0789156147869" as="geometry"/>
                  </mxCell>
<mxCell id="527" value="Project Configuration&lt;br&gt;Django" style="rounded=1;whiteSpace=wrap;html=1;fillColor=#f5f5f5" vertex="1" parent="525">
                    <mxGeometry x="65" y="120" width="168.1578312295738" height="84.0789156147869" as="geometry"/>
                  </mxCell>
<mxCell id="528" value="Product Catalog App&lt;br&gt;Django App" style="rounded=1;whiteSpace=wrap;html=1;fillColor=#f5f5f5" vertex="1" parent="525">
                    <mxGeometry x="65" y="645" width="168.1578312295738" height="84.0789156147869" as="geometry"/>
                  </mxCell>
<mxCell id="529" value="Shopping Cart App&lt;br&gt;Django App" style="rounded=1;whiteSpace=wrap;html=1;fillColor=#f5f5f5" vertex="1" parent="525">
                    <mxGeometry x="93.02630520492896" y="460" width="168.1578312295738" height="84.0789156147869" as="geometry"/>
                  </mxCell>
<mxCell id="530" value="Order Processing App&lt;br&gt;Django App" style="rounded=1;whiteSpace=wrap;html=1;fillColor=#f5f5f5" vertex="1" parent="525">
                    <mxGeometry x="196.0789156147869" y="275" width="168.1578312295738" height="84.0789156147869" as="geometry"/>
                  </mxCell>
<mxCell id="531" value="Shared UI Templates&lt;br&gt;HTML / CSS" style="rounded=1;whiteSpace=wrap;html=1;fillColor=#f5f5f5" vertex="1" parent="525">
                    <mxGeometry x="135.0657630123224" y="830" width="168.1578312295738" height="84.0789156147869" as="geometry"/>
                  </mxCell>
<mxCell id="532" value="Database&lt;br&gt;SQLite, PostgreSQL, etc." style="rounded=1;whiteSpace=wrap;html=1;fillColor=#f5f5f5" vertex="1" parent="524">
                    <mxGeometry x="40" y="120" width="168.1578312295738" height="84.0789156147869" as="geometry"/>
                  </mxCell>
<mxCell id="535" value="CLI Management&lt;br&gt;Django manage.py" style="rounded=1;whiteSpace=wrap;html=1;fillColor=#f5f5f5" vertex="1" parent="533">
                    <mxGeometry x="40" y="120" width="168.1578312295738" height="84.0789156147869" as="geometry"/>
                  </mxCell>
<mxCell id="536" value="Web Server &amp;amp; Routing&lt;br&gt;Django" style="rounded=1;whiteSpace=wrap;html=1;fillColor=#f5f5f5" vertex="1" parent="533">
                    <mxGeometry x="121.0657630123224" y="305" width="168.1578312295738" height="84.0789156147869" as="geometry"/>
                  </mxCell>
<mxCell id="537" value="Product Catalog App&lt;br&gt;Django App" style="rounded=1;whiteSpace=wrap;html=1;fillColor=#f5f5f5" vertex="1" parent="533">
                    <mxGeometry x="107.05261040985792" y="830" width="168.1578312295738" height="84.0789156147869" as="geometry"/>
                  </mxCell>
<mxCell id="538" value="Shopping Cart App&lt;br&gt;Django App" style="rounded=1;whiteSpace=wrap;html=1;fillColor=#f5f5f5" vertex="1" parent="533">
                    <mxGeometry x="174.10522081971584" y="645" width="168.1578312295738" height="84.0789156147869" as="geometry"/>
                  </mxCell>
<mxCell id="539" value="Order Processing App&lt;br&gt;Django App" style="rounded=1;whiteSpace=wrap;html=1;fillColor=#f5f5f5" vertex="1" parent="533">
                    <mxGeometry x="261.15783122957373" y="460" width="168.1578312295738" height="84.0789156147869" as="geometry"/>
                  </mxCell>
<mxCell id="540" value="HTML Templates&lt;br&gt;Django Templates" style="rounded=1;whiteSpace=wrap;html=1;fillColor=#f5f5f5" vertex="1" parent="533">
                    <mxGeometry x="293.9999195574601" y="1005" width="168.1578312295738" height="84.0789156147869" as="geometry"/>
                  </mxCell>
<mxCell id="541" value="Static Assets&lt;br&gt;CSS" style="rounded=1;whiteSpace=wrap;html=1;fillColor=#f5f5f5" vertex="1" parent="533">
                    <mxGeometry x="293.9999195574601" y="1190" width="168.1578312295738" height="84.0789156147869" as="geometry"/>
                  </mxCell>
<mxCell id="542" value="Database&lt;br&gt;PostgreSQL / SQLite" style="rounded=1;whiteSpace=wrap;html=1;fillColor=#f5f5f5" vertex="1" parent="533">
                    <mxGeometry x="95.84208832788633" y="1015" width="168.1578312295738" height="84.0789156147869" as="geometry"/>
                  </mxCell>
              <mxCell id="edge-609" style="edgeStyle=orthogonalEdgeStyle;rounded=1;orthogonalLoop=1;jettySize=auto;html=1;strokeColor=#808080;strokeWidth=2;jumpStyle=arc;jumpSize=10;spacing=15;labelBackgroundColor=white;labelBorderColor=none" edge="1" parent="1" source="526" target="527">
                  <mxGeometry relative="1" as="geometry"/>
                </mxCell>
                <mxCell id="edge-609_label" value="makes HTTP requests" style="edgeLabel;html=1;align=center;verticalAlign=middle;resizable=0;points=[];" vertex="1" connectable="0" parent="edge-609">
                  <mxGeometry x="-0.2" y="10" relative="1" as="geometry">
                    <mxPoint as="offset"/>
                  </mxGeometry>
                </mxCell>
<mxCell id="edge-610" style="edgeStyle=orthogonalEdgeStyle;rounded=1;orthogonalLoop=1;jettySize=auto;html=1;strokeColor=#808080;strokeWidth=2;jumpStyle=arc;jumpSize=10;spacing=15;labelBackgroundColor=white;labelBorderColor=none" edge="1" parent="1" source="527" target="528">
                  <mxGeometry relative="1" as="geometry"/>
                </mxCell>
                <mxCell id="edge-610_label" value="routes to" style="edgeLabel;html=1;align=center;verticalAlign=middle;resizable=0;points=[];" vertex="1" connectable="0" parent="edge-610">
                  <mxGeometry x="-0.2" y="10" relative="1" as="geometry">
                    <mxPoint as="offset"/>
                  </mxGeometry>
                </mxCell>
<mxCell id="edge-611" style="edgeStyle=orthogonalEdgeStyle;rounded=1;orthogonalLoop=1;jettySize=auto;html=1;strokeColor=#808080;strokeWidth=2;jumpStyle=arc;jumpSize=10;spacing=15;labelBackgroundColor=white;labelBorderColor=none" edge="1" parent="1" source="527" target="529">
                  <mxGeometry relative="1" as="geometry"/>
                </mxCell>
                <mxCell id="edge-611_label" value="routes to" style="edgeLabel;html=1;align=center;verticalAlign=middle;resizable=0;points=[];" vertex="1" connectable="0" parent="edge-611">
                  <mxGeometry x="-0.2" y="10" relative="1" as="geometry">
                    <mxPoint as="offset"/>
                  </mxGeometry>
                </mxCell>
<mxCell id="edge-612" style="edgeStyle=orthogonalEdgeStyle;rounded=1;orthogonalLoop=1;jettySize=auto;html=1;strokeColor=#808080;strokeWidth=2;jumpStyle=arc;jumpSize=10;spacing=15;labelBackgroundColor=white;labelBorderColor=none" edge="1" parent="1" source="527" target="530">
                  <mxGeometry relative="1" as="geometry"/>
                </mxCell>
                <mxCell id="edge-612_label" value="routes to" style="edgeLabel;html=1;align=center;verticalAlign=middle;resizable=0;points=[];" vertex="1" connectable="0" parent="edge-612">
                  <mxGeometry x="-0.2" y="10" relative="1" as="geometry">
                    <mxPoint as="offset"/>
                  </mxGeometry>
                </mxCell>
<mxCell id="edge-613" style="edgeStyle=orthogonalEdgeStyle;rounded=1;orthogonalLoop=1;jettySize=auto;html=1;strokeColor=#808080;strokeWidth=2;jumpStyle=arc;jumpSize=10;spacing=15;labelBackgroundColor=white;labelBorderColor=none" edge="1" parent="1" source="529" target="528">
                  <mxGeometry relative="1" as="geometry"/>
                </mxCell>
                <mxCell id="edge-613_label" value="references products" style="edgeLabel;html=1;align=center;verticalAlign=middle;resizable=0;points=[];" vertex="1" connectable="0" parent="edge-613">
                  <mxGeometry x="-0.2" y="10" relative="1" as="geometry">
                    <mxPoint as="offset"/>
                  </mxGeometry>
                </mxCell>
<mxCell id="edge-616" style="edgeStyle=orthogonalEdgeStyle;rounded=1;orthogonalLoop=1;jettySize=auto;html=1;strokeColor=#808080;strokeWidth=2;jumpStyle=arc;jumpSize=10;spacing=15;labelBackgroundColor=white;labelBorderColor=none" edge="1" parent="1" source="529" target="532">
                  <mxGeometry relative="1" as="geometry"/>
                </mxCell>
                <mxCell id="edge-616_label" value="reads/writes" style="edgeLabel;html=1;align=center;verticalAlign=middle;resizable=0;points=[];" vertex="1" connectable="0" parent="edge-616">
                  <mxGeometry x="-0.2" y="10" relative="1" as="geometry">
                    <mxPoint as="offset"/>
                  </mxGeometry>
                </mxCell>
<mxCell id="edge-619" style="edgeStyle=orthogonalEdgeStyle;rounded=1;orthogonalLoop=1;jettySize=auto;html=1;strokeColor=#808080;strokeWidth=2;jumpStyle=arc;jumpSize=10;spacing=15;labelBackgroundColor=white;labelBorderColor=none" edge="1" parent="1" source="529" target="531">
                  <mxGeometry relative="1" as="geometry"/>
                </mxCell>
                <mxCell id="edge-619_label" value="renders with" style="edgeLabel;html=1;align=center;verticalAlign=middle;resizable=0;points=[];" vertex="1" connectable="0" parent="edge-619">
                  <mxGeometry x="-0.2" y="10" relative="1" as="geometry">
                    <mxPoint as="offset"/>
                  </mxGeometry>
                </mxCell>
<mxCell id="edge-614" style="edgeStyle=orthogonalEdgeStyle;rounded=1;orthogonalLoop=1;jettySize=auto;html=1;strokeColor=#808080;strokeWidth=2;jumpStyle=arc;jumpSize=10;spacing=15;labelBackgroundColor=white;labelBorderColor=none" edge="1" parent="1" source="530" target="529">
                  <mxGeometry relative="1" as="geometry"/>
                </mxCell>
                <mxCell id="edge-614_label" value="creates orders from" style="edgeLabel;html=1;align=center;verticalAlign=middle;resizable=0;points=[];" vertex="1" connectable="0" parent="edge-614">
                  <mxGeometry x="-0.2" y="10" relative="1" as="geometry">
                    <mxPoint as="offset"/>
                  </mxGeometry>
                </mxCell>
<mxCell id="edge-617" style="edgeStyle=orthogonalEdgeStyle;rounded=1;orthogonalLoop=1;jettySize=auto;html=1;strokeColor=#808080;strokeWidth=2;jumpStyle=arc;jumpSize=10;spacing=15;labelBackgroundColor=white;labelBorderColor=none" edge="1" parent="1" source="530" target="532">
                  <mxGeometry relative="1" as="geometry"/>
                </mxCell>
                <mxCell id="edge-617_label" value="reads/writes" style="edgeLabel;html=1;align=center;verticalAlign=middle;resizable=0;points=[];" vertex="1" connectable="0" parent="edge-617">
                  <mxGeometry x="-0.2" y="10" relative="1" as="geometry">
                    <mxPoint as="offset"/>
                  </mxGeometry>
                </mxCell>
<mxCell id="edge-620" style="edgeStyle=orthogonalEdgeStyle;rounded=1;orthogonalLoop=1;jettySize=auto;html=1;strokeColor=#808080;strokeWidth=2;jumpStyle=arc;jumpSize=10;spacing=15;labelBackgroundColor=white;labelBorderColor=none" edge="1" parent="1" source="530" target="531">
                  <mxGeometry relative="1" as="geometry"/>
                </mxCell>
                <mxCell id="edge-620_label" value="renders with" style="edgeLabel;html=1;align=center;verticalAlign=middle;resizable=0;points=[];" vertex="1" connectable="0" parent="edge-620">
                  <mxGeometry x="-0.2" y="10" relative="1" as="geometry">
                    <mxPoint as="offset"/>
                  </mxGeometry>
                </mxCell>
<mxCell id="edge-615" style="edgeStyle=orthogonalEdgeStyle;rounded=1;orthogonalLoop=1;jettySize=auto;html=1;strokeColor=#808080;strokeWidth=2;jumpStyle=arc;jumpSize=10;spacing=15;labelBackgroundColor=white;labelBorderColor=none" edge="1" parent="1" source="528" target="532">
                  <mxGeometry relative="1" as="geometry"/>
                </mxCell>
                <mxCell id="edge-615_label" value="reads/writes" style="edgeLabel;html=1;align=center;verticalAlign=middle;resizable=0;points=[];" vertex="1" connectable="0" parent="edge-615">
                  <mxGeometry x="-0.2" y="10" relative="1" as="geometry">
                    <mxPoint as="offset"/>
                  </mxGeometry>
                </mxCell>
<mxCell id="edge-618" style="edgeStyle=orthogonalEdgeStyle;rounded=1;orthogonalLoop=1;jettySize=auto;html=1;strokeColor=#808080;strokeWidth=2;jumpStyle=arc;jumpSize=10;spacing=15;labelBackgroundColor=white;labelBorderColor=none" edge="1" parent="1" source="528" target="531">
                  <mxGeometry relative="1" as="geometry"/>
                </mxCell>
                <mxCell id="edge-618_label" value="renders with" style="edgeLabel;html=1;align=center;verticalAlign=middle;resizable=0;points=[];" vertex="1" connectable="0" parent="edge-618">
                  <mxGeometry x="-0.2" y="10" relative="1" as="geometry">
                    <mxPoint as="offset"/>
                  </mxGeometry>
                </mxCell>
<mxCell id="edge-655" style="edgeStyle=orthogonalEdgeStyle;rounded=1;orthogonalLoop=1;jettySize=auto;html=1;strokeColor=#808080;strokeWidth=2;jumpStyle=arc;jumpSize=10;spacing=15;labelBackgroundColor=white;labelBorderColor=none" edge="1" parent="1" source="535" target="536">
                  <mxGeometry relative="1" as="geometry"/>
                </mxCell>
                <mxCell id="edge-655_label" value="uses settings from" style="edgeLabel;html=1;align=center;verticalAlign=middle;resizable=0;points=[];" vertex="1" connectable="0" parent="edge-655">
                  <mxGeometry x="-0.2" y="10" relative="1" as="geometry">
                    <mxPoint as="offset"/>
                  </mxGeometry>
                </mxCell>
<mxCell id="edge-656" style="edgeStyle=orthogonalEdgeStyle;rounded=1;orthogonalLoop=1;jettySize=auto;html=1;strokeColor=#808080;strokeWidth=2;jumpStyle=arc;jumpSize=10;spacing=15;labelBackgroundColor=white;labelBorderColor=none" edge="1" parent="1" source="535" target="542">
                  <mxGeometry relative="1" as="geometry"/>
                </mxCell>
                <mxCell id="edge-656_label" value="manages" style="edgeLabel;html=1;align=center;verticalAlign=middle;resizable=0;points=[];" vertex="1" connectable="0" parent="edge-656">
                  <mxGeometry x="-0.2" y="10" relative="1" as="geometry">
                    <mxPoint as="offset"/>
                  </mxGeometry>
                </mxCell>
<mxCell id="edge-643" style="edgeStyle=orthogonalEdgeStyle;rounded=1;orthogonalLoop=1;jettySize=auto;html=1;strokeColor=#808080;strokeWidth=2;jumpStyle=arc;jumpSize=10;spacing=15;labelBackgroundColor=white;labelBorderColor=none" edge="1" parent="1" source="536" target="537">
                  <mxGeometry relative="1" as="geometry"/>
                </mxCell>
                <mxCell id="edge-643_label" value="routes to" style="edgeLabel;html=1;align=center;verticalAlign=middle;resizable=0;points=[];" vertex="1" connectable="0" parent="edge-643">
                  <mxGeometry x="-0.2" y="10" relative="1" as="geometry">
                    <mxPoint as="offset"/>
                  </mxGeometry>
                </mxCell>
<mxCell id="edge-644" style="edgeStyle=orthogonalEdgeStyle;rounded=1;orthogonalLoop=1;jettySize=auto;html=1;strokeColor=#808080;strokeWidth=2;jumpStyle=arc;jumpSize=10;spacing=15;labelBackgroundColor=white;labelBorderColor=none" edge="1" parent="1" source="536" target="538">
                  <mxGeometry relative="1" as="geometry"/>
                </mxCell>
                <mxCell id="edge-644_label" value="routes to" style="edgeLabel;html=1;align=center;verticalAlign=middle;resizable=0;points=[];" vertex="1" connectable="0" parent="edge-644">
                  <mxGeometry x="-0.2" y="10" relative="1" as="geometry">
                    <mxPoint as="offset"/>
                  </mxGeometry>
                </mxCell>
<mxCell id="edge-645" style="edgeStyle=orthogonalEdgeStyle;rounded=1;orthogonalLoop=1;jettySize=auto;html=1;strokeColor=#808080;strokeWidth=2;jumpStyle=arc;jumpSize=10;spacing=15;labelBackgroundColor=white;labelBorderColor=none" edge="1" parent="1" source="536" target="539">
                  <mxGeometry relative="1" as="geometry"/>
                </mxCell>
                <mxCell id="edge-645_label" value="routes to" style="edgeLabel;html=1;align=center;verticalAlign=middle;resizable=0;points=[];" vertex="1" connectable="0" parent="edge-645">
                  <mxGeometry x="-0.2" y="10" relative="1" as="geometry">
                    <mxPoint as="offset"/>
                  </mxGeometry>
                </mxCell>
<mxCell id="edge-653" style="edgeStyle=orthogonalEdgeStyle;rounded=1;orthogonalLoop=1;jettySize=auto;html=1;strokeColor=#808080;strokeWidth=2;jumpStyle=arc;jumpSize=10;spacing=15;labelBackgroundColor=white;labelBorderColor=none" edge="1" parent="1" source="538" target="537">
                  <mxGeometry relative="1" as="geometry"/>
                </mxCell>
                <mxCell id="edge-653_label" value="references" style="edgeLabel;html=1;align=center;verticalAlign=middle;resizable=0;points=[];" vertex="1" connectable="0" parent="edge-653">
                  <mxGeometry x="-0.2" y="10" relative="1" as="geometry">
                    <mxPoint as="offset"/>
                  </mxGeometry>
                </mxCell>
<mxCell id="edge-647" style="edgeStyle=orthogonalEdgeStyle;rounded=1;orthogonalLoop=1;jettySize=auto;html=1;strokeColor=#808080;strokeWidth=2;jumpStyle=arc;jumpSize=10;spacing=15;labelBackgroundColor=white;labelBorderColor=none" edge="1" parent="1" source="538" target="540">
                  <mxGeometry relative="1" as="geometry"/>
                </mxCell>
                <mxCell id="edge-647_label" value="renders" style="edgeLabel;html=1;align=center;verticalAlign=middle;resizable=0;points=[];" vertex="1" connectable="0" parent="edge-647">
                  <mxGeometry x="-0.2" y="10" relative="1" as="geometry">
                    <mxPoint as="offset"/>
                  </mxGeometry>
                </mxCell>
<mxCell id="edge-651" style="edgeStyle=orthogonalEdgeStyle;rounded=1;orthogonalLoop=1;jettySize=auto;html=1;strokeColor=#808080;strokeWidth=2;jumpStyle=arc;jumpSize=10;spacing=15;labelBackgroundColor=white;labelBorderColor=none" edge="1" parent="1" source="538" target="542">
                  <mxGeometry relative="1" as="geometry"/>
                </mxCell>
                <mxCell id="edge-651_label" value="defines schema in" style="edgeLabel;html=1;align=center;verticalAlign=middle;resizable=0;points=[];" vertex="1" connectable="0" parent="edge-651">
                  <mxGeometry x="-0.2" y="10" relative="1" as="geometry">
                    <mxPoint as="offset"/>
                  </mxGeometry>
                </mxCell>
<mxCell id="edge-654" style="edgeStyle=orthogonalEdgeStyle;rounded=1;orthogonalLoop=1;jettySize=auto;html=1;strokeColor=#808080;strokeWidth=2;jumpStyle=arc;jumpSize=10;spacing=15;labelBackgroundColor=white;labelBorderColor=none" edge="1" parent="1" source="539" target="538">
                  <mxGeometry relative="1" as="geometry"/>
                </mxCell>
                <mxCell id="edge-654_label" value="creates order from" style="edgeLabel;html=1;align=center;verticalAlign=middle;resizable=0;points=[];" vertex="1" connectable="0" parent="edge-654">
                  <mxGeometry x="-0.2" y="10" relative="1" as="geometry">
                    <mxPoint as="offset"/>
                  </mxGeometry>
                </mxCell>
<mxCell id="edge-648" style="edgeStyle=orthogonalEdgeStyle;rounded=1;orthogonalLoop=1;jettySize=auto;html=1;strokeColor=#808080;strokeWidth=2;jumpStyle=arc;jumpSize=10;spacing=15;labelBackgroundColor=white;labelBorderColor=none" edge="1" parent="1" source="539" target="540">
                  <mxGeometry relative="1" as="geometry"/>
                </mxCell>
                <mxCell id="edge-648_label" value="renders" style="edgeLabel;html=1;align=center;verticalAlign=middle;resizable=0;points=[];" vertex="1" connectable="0" parent="edge-648">
                  <mxGeometry x="-0.2" y="10" relative="1" as="geometry">
                    <mxPoint as="offset"/>
                  </mxGeometry>
                </mxCell>
<mxCell id="edge-652" style="edgeStyle=orthogonalEdgeStyle;rounded=1;orthogonalLoop=1;jettySize=auto;html=1;strokeColor=#808080;strokeWidth=2;jumpStyle=arc;jumpSize=10;spacing=15;labelBackgroundColor=white;labelBorderColor=none" edge="1" parent="1" source="539" target="542">
                  <mxGeometry relative="1" as="geometry"/>
                </mxCell>
                <mxCell id="edge-652_label" value="defines schema in" style="edgeLabel;html=1;align=center;verticalAlign=middle;resizable=0;points=[];" vertex="1" connectable="0" parent="edge-652">
                  <mxGeometry x="-0.2" y="10" relative="1" as="geometry">
                    <mxPoint as="offset"/>
                  </mxGeometry>
                </mxCell>
<mxCell id="edge-646" style="edgeStyle=orthogonalEdgeStyle;rounded=1;orthogonalLoop=1;jettySize=auto;html=1;strokeColor=#808080;strokeWidth=2;jumpStyle=arc;jumpSize=10;spacing=15;labelBackgroundColor=white;labelBorderColor=none" edge="1" parent="1" source="537" target="540">
                  <mxGeometry relative="1" as="geometry"/>
                </mxCell>
                <mxCell id="edge-646_label" value="renders" style="edgeLabel;html=1;align=center;verticalAlign=middle;resizable=0;points=[];" vertex="1" connectable="0" parent="edge-646">
                  <mxGeometry x="-0.2" y="10" relative="1" as="geometry">
                    <mxPoint as="offset"/>
                  </mxGeometry>
                </mxCell>
<mxCell id="edge-650" style="edgeStyle=orthogonalEdgeStyle;rounded=1;orthogonalLoop=1;jettySize=auto;html=1;strokeColor=#808080;strokeWidth=2;jumpStyle=arc;jumpSize=10;spacing=15;labelBackgroundColor=white;labelBorderColor=none" edge="1" parent="1" source="537" target="542">
                  <mxGeometry relative="1" as="geometry"/>
                </mxCell>
                <mxCell id="edge-650_label" value="defines schema in" style="edgeLabel;html=1;align=center;verticalAlign=middle;resizable=0;points=[];" vertex="1" connectable="0" parent="edge-650">
                  <mxGeometry x="-0.2" y="10" relative="1" as="geometry">
                    <mxPoint as="offset"/>
                  </mxGeometry>
                </mxCell>
<mxCell id="edge-649" style="edgeStyle=orthogonalEdgeStyle;rounded=1;orthogonalLoop=1;jettySize=auto;html=1;strokeColor=#808080;strokeWidth=2;jumpStyle=arc;jumpSize=10;spacing=15;labelBackgroundColor=white;labelBorderColor=none" edge="1" parent="1" source="540" target="541">
                  <mxGeometry relative="1" as="geometry"/>
                </mxCell>
                <mxCell id="edge-649_label" value="links to" style="edgeLabel;html=1;align=center;verticalAlign=middle;resizable=0;points=[];" vertex="1" connectable="0" parent="edge-649">
                  <mxGeometry x="-0.2" y="10" relative="1" as="geometry">
                    <mxPoint as="offset"/>
                  </mxGeometry>
                </mxCell>
<mxCell id="edge-657" style="edgeStyle=orthogonalEdgeStyle;rounded=1;orthogonalLoop=1;jettySize=auto;html=1;strokeColor=#808080;strokeWidth=2;jumpStyle=arc;jumpSize=10;spacing=15;labelBackgroundColor=white;labelBorderColor=none" edge="1" parent="1" source="534" target="536">
                  <mxGeometry relative="1" as="geometry"/>
                </mxCell>
                <mxCell id="edge-657_label" value="sends HTTP requests to" style="edgeLabel;html=1;align=center;verticalAlign=middle;resizable=0;points=[];" vertex="1" connectable="0" parent="edge-657">
                  <mxGeometry x="-0.2" y="10" relative="1" as="geometry">
                    <mxPoint as="offset"/>
                  </mxGeometry>
                </mxCell>
            </root>
          </mxGraphModel>
        </diagram>
      </mxfile>